# xmcd CD database file
#
# Track frame offsets:
#	150
#	17150
#	29472
#	42302
#	77952
#	86115
#	94807
#	130275
#	139370
#	169587
#	177077
#	241882
#	265872
#
# Disc length: 3863 seconds
#
# Revision: 0
# Processed by: cddbd v1.5.1PL0 Copyright (c) Steve Scherf et al.
# Submitted via: CDex 1.51
#
DISCID=ae0f150d
DTITLE=白倉由美 - ドラマCD　フォトジェニック
DYEAR=1997
DGENRE=Drama
TTITLE0=Kiss IN MY LIST
TTITLE1=コーヒーミルククレイジー
TTITLE2=切なさの標本
TTITLE3=ハネムーン
TTITLE4=鈴音のお茶は木蓮の味
TTITLE5=ささやかだけど強いきずな
TTITLE6=いつか空にかえる日
TTITLE7=ショコラ・シフォン
TTITLE8=愛美をファンタージェンにつれていって
TTITLE9=Kiss・Kiss・Kiss
TTITLE10=マスカットみたいな甘いおしゃべり
TTITLE11=無人島にいこうよ
TTITLE12=あなたに大好きって伝えたい
EXTD=YEAR: 1997
EXTT0=
EXTT1=
EXTT2=
EXTT3=
EXTT4=
EXTT5=
EXTT6=
EXTT7=
EXTT8=
EXTT9=
EXTT10=
EXTT11=
EXTT12=
PLAYORDER=
